<svg xmlns="http://www.w3.org/2000/svg" width="224" height="50" viewBox="0 0 224 50" fill="currentColor">
  
  <path d="M 6 50 C 2.686 50 0 47.313 0 44 L 0 0 L 43.374 0 L 43.374 10 L 10 10 L 10 20 L 43.374 20 L 43.374 30 L 10 30 L 10 40 L 43.374 40 L 43.374 50 L 6 50 Z" fill-rule="nonzero"></path>
  
  <g transform="translate(53.738 0)">
    <path d="M 37.499 0 C 44.374 0 49.999 5.625 49.999 12.5 L 49.999 17.5 C 49.999 24.375 44.374 30 37.499 30 L 35.874 30 L 48.329 47.635 C 49.03 48.628 48.32 50 47.104 50 L 37.687 50 L 24.158 30.759 L 17.188 20 L 37.499 20 C 38.874 20 39.999 18.875 39.999 17.5 L 39.999 12.5 C 39.999 11.125 38.874 10 37.499 10 L 10 10 L 10 20 L 10.014 20 L 10.014 30 L 10 30 L 10 50 L 3.75 50 C 1.679 50 0 48.321 0 46.25 L 0 0 L 37.499 0 Z" fill-rule="nonzero"></path>
  </g>
  
  <g transform="translate(113.721 0)">
    <path d="M 0 0 L 10 0 L 10 37.5 C 10 38.875 11.125 40 12.5 40 L 37.5 40 C 38.875 40 40 38.875 40 37.5 L 40 0 L 50 0 L 50 37.5 C 50 44.375 44.375 50 37.5 50 L 12.5 50 C 5.625 50 0 44.375 0 37.5 L 0 0 Z" fill-rule="nonzero"></path>
  </g>
  
  <g transform="translate(173.706 0)">
    <path d="M 0 0 L 50 0 L 50 10 L 30.75 10 L 30.75 46.25 C 30.75 48.321 29.071 50 27 50 L 19.25 50 L 19.25 10 L 0 10 L 0 0 Z" fill-rule="nonzero"></path>
  </g>
</svg>