<svg xmlns="http://www.w3.org/2000/svg" width="8.138" height="21.478" viewBox="0 0 8.138 21.478" fill="none">
  <path d="M 7.508 0.106 C 5.206 2.329 3.554 5.245 2.691 8.644 C 2.601 9.003 2.626 9.411 2.765 9.819 C 2.905 10.228 3.151 10.612 3.471 10.922 L 3.472 10.922 L 6.612 13.969 L 6.606 13.973 C 7.049 14.397 7.41 14.911 7.68 15.457 C 7.943 16.004 8.099 16.584 8.132 17.14 C 8.164 17.703 8.066 18.226 7.861 18.667 C 7.689 19.035 7.433 19.337 7.121 19.565 L 4.483 21.478 C 4.795 21.249 5.042 20.947 5.222 20.579 C 5.436 20.138 5.527 19.614 5.494 19.051 C 5.461 18.495 5.305 17.915 5.042 17.368 C 4.779 16.821 4.408 16.298 3.965 15.882 L 3.974 15.874 L 0.834 12.833 L 0.834 12.834 C 0.513 12.524 0.266 12.14 0.127 11.731 C -0.013 11.323 -0.037 10.914 0.054 10.555 C 0.917 7.156 2.568 4.248 4.869 2.018 C 4.91 1.977 4.952 1.945 4.993 1.912 L 7.631 0 C 7.59 0.033 7.549 0.066 7.508 0.106 Z" fill="currentColor" fill-rule="evenodd"></path>
</svg>