<svg xmlns="http://www.w3.org/2000/svg" width="11.539" height="5.355" viewBox="0 0 11.539 5.355" fill="none">
  <path d="M 9.641 3.068 C 9.879 3.231 10.134 3.345 10.389 3.403 C 10.512 3.427 10.627 3.444 10.742 3.444 C 11.046 3.435 11.317 3.354 11.539 3.198 L 8.901 5.11 C 8.679 5.273 8.399 5.355 8.104 5.355 C 7.989 5.355 7.865 5.339 7.75 5.315 C 7.495 5.257 7.24 5.143 7.002 4.98 L 9.641 3.068 Z M 3.132 0.175 C 3.576 0.004 4.077 -0.046 4.595 0.044 C 4.66 0.052 4.726 0.069 4.792 0.085 C 5.244 0.191 5.704 0.396 6.14 0.69 L 6.138 0.691 L 9.639 3.06 L 7.001 4.972 L 3.499 2.603 L 3.5 2.601 C 3.073 2.307 2.613 2.103 2.153 1.997 C 2.088 1.981 2.022 1.973 1.956 1.956 C 1.43 1.866 0.929 1.907 0.493 2.087 C 0.312 2.161 0.148 2.25 0 2.357 L 2.639 0.444 C 2.787 0.338 2.959 0.24 3.132 0.175 Z" fill="currentColor" fill-rule="evenodd"></path>
</svg>