<svg xmlns="http://www.w3.org/2000/svg" width="24.337" height="14.354" viewBox="0 0 24.337 14.354" fill="none">
  <path d="M 11.415 8.01 L 11.41 8.013 C 11.477 8.417 11.649 8.821 11.918 9.169 C 12.181 9.52 12.518 9.814 12.896 9.978 C 14.68 10.827 16.488 11.457 18.279 11.873 C 20.071 12.282 21.855 12.478 23.589 12.437 C 23.868 12.437 24.131 12.356 24.337 12.2 L 21.698 14.111 C 21.485 14.267 21.23 14.349 20.95 14.349 C 19.216 14.39 17.433 14.202 15.642 13.785 C 13.85 13.377 12.041 12.739 10.258 11.89 C 9.888 11.718 9.543 11.432 9.28 11.081 C 9.017 10.73 8.836 10.321 8.771 9.912 L 8.774 9.908 L 8.152 5.902 L 10.791 3.99 L 11.415 8.01 Z M 5.966 0.069 C 6.377 -0.029 6.82 -0.021 7.28 0.085 C 7.346 0.101 7.412 0.118 7.478 0.134 C 7.995 0.289 8.522 0.559 8.99 0.943 C 9.459 1.326 9.862 1.801 10.174 2.323 C 10.494 2.854 10.7 3.427 10.79 3.99 L 8.151 5.902 C 8.069 5.338 7.856 4.766 7.535 4.236 C 7.223 3.704 6.812 3.23 6.352 2.855 C 5.883 2.471 5.357 2.193 4.84 2.046 C 4.774 2.03 4.708 2.013 4.643 1.996 C 4.182 1.89 3.738 1.891 3.327 1.981 L 5.966 0.069 Z M 3.328 1.972 L 0 2.773 L 2.638 0.861 L 5.967 0.06 L 3.328 1.972 Z" fill="currentColor" fill-rule="evenodd"></path>
</svg>