<svg xmlns="http://www.w3.org/2000/svg" width="10.728" height="15.774" viewBox="0 0 10.728 15.774" fill="none">
  <path d="M 10.728 13.823 L 8.09 15.735 C 7.86 15.792 7.613 15.784 7.359 15.726 C 7.235 15.702 7.12 15.661 6.997 15.604 C 6.627 15.432 6.274 15.155 6.003 14.811 C 3.389 11.462 1.384 7.696 0.118 3.815 C -0.014 3.407 -0.038 2.998 0.06 2.639 C 0.142 2.336 0.307 2.083 0.537 1.912 L 3.175 0 C 2.945 0.172 2.781 0.425 2.699 0.727 C 2.6 1.087 2.625 1.495 2.756 1.904 C 4.014 5.784 6.027 9.55 8.641 12.9 C 8.912 13.251 9.257 13.529 9.635 13.692 C 9.759 13.741 9.874 13.782 9.997 13.815 C 10.243 13.88 10.498 13.88 10.728 13.823 Z" fill="currentColor" fill-rule="nonzero"></path>
</svg>