<svg xmlns="http://www.w3.org/2000/svg" width="46.198" height="51.327" viewBox="0 0 46.198 51.327" fill="none">
  <path d="M 46.071 37.025 C 46.211 37.433 46.235 37.842 46.145 38.201 C 45.274 41.6 43.638 44.516 41.329 46.738 C 41.09 46.967 40.761 47.09 40.4 47.09 C 40.285 47.09 40.161 47.073 40.046 47.049 C 39.792 46.992 39.537 46.877 39.298 46.714 L 35.797 44.345 C 35.37 44.051 34.91 43.846 34.449 43.74 C 34.384 43.724 34.318 43.716 34.252 43.699 C 33.726 43.61 33.225 43.65 32.789 43.83 C 32.345 44.002 31.984 44.304 31.721 44.704 C 31.458 45.105 31.31 45.603 31.285 46.142 L 31.088 49.982 C 31.063 50.366 30.94 50.709 30.702 50.946 C 30.471 51.183 30.151 51.322 29.789 51.322 C 28.055 51.362 26.272 51.175 24.48 50.758 C 22.688 50.349 20.88 49.712 19.096 48.863 C 18.727 48.691 18.381 48.405 18.118 48.054 C 17.855 47.702 17.675 47.294 17.609 46.886 L 16.984 42.866 C 16.902 42.302 16.688 41.73 16.368 41.199 C 16.055 40.668 15.644 40.195 15.184 39.819 C 14.716 39.435 14.19 39.157 13.672 39.01 C 13.606 38.994 13.54 38.977 13.475 38.961 C 13.014 38.855 12.571 38.855 12.16 38.945 L 8.831 39.753 C 8.601 39.811 8.354 39.802 8.1 39.745 C 7.976 39.721 7.861 39.68 7.738 39.623 C 7.368 39.451 7.015 39.173 6.743 38.83 C 4.13 35.481 2.124 31.715 0.859 27.834 C 0.727 27.426 0.703 27.017 0.801 26.658 C 0.9 26.306 1.105 26.02 1.401 25.857 L 4.294 24.19 C 4.697 23.953 5.017 23.602 5.231 23.161 C 5.445 22.72 5.535 22.197 5.502 21.633 C 5.47 21.078 5.313 20.498 5.05 19.95 C 4.787 19.403 4.417 18.88 3.974 18.464 L 0.834 15.416 C 0.514 15.106 0.267 14.722 0.127 14.313 C -0.012 13.905 -0.037 13.496 0.053 13.137 C 0.916 9.738 2.568 6.83 4.87 4.6 C 5.116 4.371 5.437 4.248 5.806 4.257 C 5.93 4.257 6.053 4.273 6.168 4.297 C 6.415 4.355 6.669 4.469 6.9 4.632 L 10.384 6.993 C 10.812 7.279 11.272 7.484 11.732 7.59 C 11.798 7.606 11.864 7.614 11.93 7.631 C 12.456 7.721 12.957 7.68 13.393 7.5 C 13.836 7.32 14.198 7.026 14.461 6.618 C 14.724 6.217 14.872 5.727 14.897 5.18 L 15.102 1.348 C 15.118 0.956 15.258 0.613 15.497 0.376 C 15.735 0.131 16.064 0 16.425 0 C 18.151 -0.008 19.91 0.18 21.743 0.58 C 23.526 1.005 25.31 1.634 27.069 2.443 C 27.439 2.615 27.792 2.9 28.055 3.26 C 28.326 3.619 28.507 4.028 28.573 4.445 L 29.197 8.464 C 29.288 9.036 29.493 9.608 29.806 10.139 C 30.126 10.678 30.529 11.152 31.006 11.536 C 31.474 11.92 31.992 12.189 32.518 12.344 C 32.584 12.361 32.649 12.377 32.715 12.394 C 33.175 12.5 33.627 12.5 34.038 12.402 L 37.351 11.601 C 37.581 11.544 37.827 11.552 38.082 11.609 C 38.205 11.634 38.32 11.675 38.444 11.732 C 38.814 11.903 39.167 12.181 39.438 12.524 C 42.052 15.866 44.057 19.632 45.323 23.512 C 45.454 23.913 45.471 24.321 45.38 24.681 C 45.282 25.032 45.068 25.31 44.78 25.481 L 41.896 27.156 C 41.493 27.393 41.164 27.736 40.95 28.185 C 40.737 28.626 40.655 29.149 40.679 29.713 C 40.712 30.269 40.86 30.849 41.131 31.396 C 41.394 31.943 41.764 32.458 42.208 32.883 L 45.356 35.93 C 45.693 36.232 45.939 36.616 46.071 37.025 Z M 28.548 32.295 C 29.83 31.167 30.488 29.378 30.381 27.319 C 30.266 25.277 29.395 23.137 27.956 21.38 C 26.51 19.615 24.611 18.374 22.68 17.933 C 20.748 17.491 18.932 17.875 17.65 19.011 C 16.36 20.138 15.702 21.927 15.809 23.978 C 15.924 26.029 16.795 28.169 18.242 29.925 C 19.68 31.69 21.579 32.924 23.518 33.373 C 25.45 33.822 27.258 33.43 28.548 32.295 Z" fill="currentColor" fill-rule="nonzero"></path>
</svg>