<svg xmlns="http://www.w3.org/2000/svg" width="14" height="7" viewBox="0 0 14 7" fill="none">
  <path d="M 14.601 0.601 C 14.933 0.269 14.933 -0.269 14.601 -0.601 C 14.269 -0.933 13.731 -0.933 13.399 -0.601 L 14 0 L 14.601 0.601 Z M 7 7 L 6.399 7.601 C 6.558 7.76 6.775 7.85 7 7.85 C 7.225 7.85 7.442 7.76 7.601 7.601 L 7 7 Z M 0.601 -0.601 C 0.269 -0.933 -0.269 -0.933 -0.601 -0.601 C -0.933 -0.269 -0.933 0.269 -0.601 0.601 L 0 0 L 0.601 -0.601 Z M 14 0 L 13.399 -0.601 L 6.399 6.399 L 7 7 L 7.601 7.601 L 14.601 0.601 L 14 0 Z M 7 7 L 7.601 6.399 L 0.601 -0.601 L 0 0 L -0.601 0.601 L 6.399 7.601 L 7 7 Z" fill="currentColor" fill-rule="nonzero"></path>
</svg>