<svg xmlns="http://www.w3.org/2000/svg" width="12" height="12" viewBox="0 0 12 12" fill="none">
  <path d="M 11.077 0 L 11.077 -0.85 L 0.923 -0.85 L 0.923 0 L 0.923 0.85 L 11.077 0.85 L 11.077 0 Z M 0.923 0 L 0.923 -0.85 C -0.056 -0.85 -0.85 -0.056 -0.85 0.923 L 0 0.923 L 0.85 0.923 C 0.85 0.883 0.883 0.85 0.923 0.85 L 0.923 0 Z M 0 0.923 L -0.85 0.923 L -0.85 11.077 L 0 11.077 L 0.85 11.077 L 0.85 0.923 L 0 0.923 Z M 0 11.077 L -0.85 11.077 C -0.85 12.056 -0.056 12.85 0.923 12.85 L 0.923 12 L 0.923 11.15 C 0.883 11.15 0.85 11.117 0.85 11.077 L 0 11.077 Z M 0.923 12 L 0.923 12.85 L 11.077 12.85 L 11.077 12 L 11.077 11.15 L 0.923 11.15 L 0.923 12 Z M 11.077 12 L 11.077 12.85 C 12.056 12.85 12.85 12.056 12.85 11.077 L 12 11.077 L 11.15 11.077 C 11.15 11.117 11.117 11.15 11.077 11.15 L 11.077 12 Z M 12 11.077 L 12.85 11.077 L 12.85 0.923 L 12 0.923 L 11.15 0.923 L 11.15 11.077 L 12 11.077 Z M 12 0.923 L 12.85 0.923 C 12.85 -0.056 12.056 -0.85 11.077 -0.85 L 11.077 0 L 11.077 0.85 C 11.117 0.85 11.15 0.883 11.15 0.923 L 12 0.923 Z" fill="currentColor" fill-rule="nonzero"></path>
</svg>