<svg xmlns="http://www.w3.org/2000/svg" width="6" height="6" viewBox="0 0 6 6" fill="none">
  <path d="M 6 3 L 5.15 3 C 5.15 4.187 4.187 5.15 3 5.15 L 3 6 L 3 6.85 C 5.126 6.85 6.85 5.126 6.85 3 L 6 3 Z M 3 6 L 3 5.15 C 1.813 5.15 0.85 4.187 0.85 3 L 0 3 L -0.85 3 C -0.85 5.126 0.874 6.85 3 6.85 L 3 6 Z M 0 3 L 0.85 3 C 0.85 1.813 1.813 0.85 3 0.85 L 3 0 L 3 -0.85 C 0.874 -0.85 -0.85 0.874 -0.85 3 L 0 3 Z M 3 0 L 3 0.85 C 4.187 0.85 5.15 1.813 5.15 3 L 6 3 L 6.85 3 C 6.85 0.874 5.126 -0.85 3 -0.85 L 3 0 Z" fill="currentColor" fill-rule="nonzero"></path>
</svg>