<svg xmlns="http://www.w3.org/2000/svg" width="17.913" height="19.964" viewBox="0 0 17.913 19.964" fill="none">
  <path d="M 5.781 2.038 C 5.737 2.505 6.08 2.92 6.547 2.965 C 7.014 3.009 7.429 2.666 7.474 2.199 L 6.627 2.119 L 5.781 2.038 Z M 8.957 0 L 8.957 0.85 L 8.957 0 Z M 11.286 2.119 L 12.133 2.044 L 12.133 2.038 L 11.286 2.119 Z M 14.605 4.034 L 14.254 3.26 L 14.246 3.263 L 14.605 4.034 Z M 16.935 8.067 L 17.424 8.762 L 17.43 8.758 L 16.935 8.067 Z M 16.935 11.898 L 17.43 11.207 L 17.424 11.202 L 16.935 11.898 Z M 14.605 15.931 L 14.246 16.701 L 14.254 16.705 L 14.605 15.931 Z M 11.286 17.846 L 12.133 17.926 L 12.133 17.92 L 11.286 17.846 Z M 6.627 17.846 L 5.781 17.92 L 5.781 17.926 L 6.627 17.846 Z M 3.307 15.931 L 3.659 16.705 L 3.667 16.701 L 3.307 15.931 Z M 0.977 11.898 L 0.489 11.202 L 0.482 11.207 L 0.977 11.898 Z M 1.973 9.982 L 1.123 9.982 L 1.973 9.982 Z M 0.977 8.067 L 0.482 8.757 L 0.489 8.762 L 0.977 8.067 Z M 3.306 4.034 L 3.665 3.263 L 3.657 3.259 L 3.306 4.034 Z M 7.472 2.193 C 7.513 1.726 7.168 1.313 6.7 1.272 C 6.233 1.231 5.82 1.576 5.779 2.044 L 6.625 2.119 L 7.472 2.193 Z M 6.627 2.119 L 7.474 2.199 C 7.509 1.83 7.68 1.487 7.954 1.238 L 7.382 0.609 L 6.811 -0.02 C 6.223 0.514 5.856 1.248 5.781 2.038 L 6.627 2.119 Z M 7.382 0.609 L 7.954 1.238 C 8.229 0.988 8.586 0.85 8.957 0.85 L 8.957 0 L 8.957 -0.85 C 8.163 -0.85 7.398 -0.554 6.811 -0.02 L 7.382 0.609 Z M 8.957 0 L 8.957 0.85 C 9.328 0.85 9.685 0.988 9.959 1.238 L 10.531 0.609 L 11.103 -0.02 C 10.516 -0.554 9.751 -0.85 8.957 -0.85 L 8.957 0 Z M 10.531 0.609 L 9.959 1.238 C 10.234 1.487 10.405 1.83 10.44 2.199 L 11.286 2.119 L 12.133 2.038 C 12.057 1.248 11.69 0.514 11.103 -0.02 L 10.531 0.609 Z M 11.286 2.119 L 10.44 2.193 C 10.485 2.704 10.652 3.196 10.928 3.628 L 11.644 3.171 L 12.361 2.714 C 12.232 2.512 12.154 2.282 12.133 2.044 L 11.286 2.119 Z M 11.644 3.171 L 10.928 3.628 C 11.204 4.06 11.579 4.419 12.023 4.675 L 12.448 3.939 L 12.873 3.203 C 12.665 3.083 12.49 2.916 12.361 2.714 L 11.644 3.171 Z M 12.448 3.939 L 12.023 4.675 C 12.467 4.932 12.966 5.077 13.478 5.099 L 13.515 4.25 L 13.552 3.401 C 13.313 3.391 13.08 3.323 12.873 3.203 L 12.448 3.939 Z M 13.515 4.25 L 13.478 5.099 C 13.99 5.122 14.5 5.02 14.964 4.804 L 14.605 4.034 L 14.246 3.263 C 14.029 3.364 13.791 3.411 13.552 3.401 L 13.515 4.25 Z M 14.605 4.034 L 14.957 4.808 C 15.294 4.655 15.675 4.632 16.028 4.745 L 16.287 3.936 L 16.547 3.127 C 15.793 2.885 14.975 2.932 14.254 3.26 L 14.605 4.034 Z M 16.287 3.936 L 16.028 4.745 C 16.38 4.858 16.678 5.099 16.863 5.419 L 17.599 4.994 L 18.335 4.568 C 17.939 3.883 17.301 3.369 16.547 3.127 L 16.287 3.936 Z M 17.599 4.994 L 16.863 5.419 C 17.048 5.739 17.107 6.117 17.029 6.479 L 17.86 6.658 L 18.691 6.838 C 18.858 6.063 18.731 5.254 18.335 4.568 L 17.599 4.994 Z M 17.86 6.658 L 17.029 6.479 C 16.951 6.84 16.741 7.16 16.44 7.376 L 16.935 8.067 L 17.43 8.758 C 18.074 8.296 18.524 7.612 18.691 6.838 L 17.86 6.658 Z M 16.935 8.067 L 16.447 7.371 C 16.028 7.665 15.685 8.056 15.449 8.51 L 16.203 8.903 L 16.957 9.295 C 17.068 9.082 17.228 8.9 17.424 8.762 L 16.935 8.067 Z M 16.203 8.903 L 15.449 8.51 C 15.213 8.965 15.089 9.47 15.089 9.982 L 15.939 9.982 L 16.789 9.982 C 16.789 9.743 16.847 9.507 16.957 9.295 L 16.203 8.903 Z M 15.939 9.982 L 15.089 9.982 C 15.089 10.494 15.213 10.999 15.449 11.454 L 16.203 11.062 L 16.957 10.669 C 16.847 10.457 16.789 10.221 16.789 9.982 L 15.939 9.982 Z M 16.203 11.062 L 15.449 11.454 C 15.685 11.908 16.028 12.299 16.447 12.593 L 16.935 11.898 L 17.424 11.202 C 17.228 11.064 17.068 10.882 16.957 10.669 L 16.203 11.062 Z M 16.935 11.898 L 16.44 12.589 C 16.741 12.804 16.951 13.124 17.029 13.485 L 17.86 13.306 L 18.691 13.127 C 18.524 12.352 18.074 11.668 17.43 11.207 L 16.935 11.898 Z M 17.86 13.306 L 17.029 13.485 C 17.107 13.847 17.048 14.225 16.863 14.545 L 17.599 14.97 L 18.335 15.396 C 18.731 14.71 18.858 13.901 18.691 13.127 L 17.86 13.306 Z M 17.599 14.97 L 16.863 14.545 C 16.678 14.866 16.38 15.106 16.028 15.219 L 16.287 16.028 L 16.547 16.837 C 17.301 16.596 17.939 16.082 18.335 15.396 L 17.599 14.97 Z M 16.287 16.028 L 16.028 15.219 C 15.675 15.332 15.294 15.31 14.957 15.157 L 14.605 15.931 L 14.254 16.705 C 14.975 17.032 15.793 17.079 16.547 16.837 L 16.287 16.028 Z M 14.605 15.931 L 14.964 15.16 C 14.5 14.944 13.99 14.842 13.478 14.865 L 13.515 15.714 L 13.552 16.563 C 13.791 16.553 14.029 16.6 14.246 16.701 L 14.605 15.931 Z M 13.515 15.714 L 13.478 14.865 C 12.966 14.887 12.467 15.033 12.023 15.289 L 12.448 16.025 L 12.873 16.761 C 13.08 16.642 13.313 16.574 13.552 16.563 L 13.515 15.714 Z M 12.448 16.025 L 12.023 15.289 C 11.579 15.545 11.204 15.904 10.928 16.336 L 11.644 16.793 L 12.361 17.25 C 12.49 17.049 12.665 16.881 12.873 16.761 L 12.448 16.025 Z M 11.644 16.793 L 10.928 16.336 C 10.652 16.768 10.485 17.26 10.44 17.771 L 11.286 17.846 L 12.133 17.92 C 12.154 17.682 12.232 17.452 12.361 17.25 L 11.644 16.793 Z M 11.286 17.846 L 10.44 17.765 C 10.405 18.134 10.234 18.477 9.959 18.726 L 10.531 19.355 L 11.103 19.984 C 11.69 19.45 12.057 18.716 12.133 17.926 L 11.286 17.846 Z M 10.531 19.355 L 9.959 18.726 C 9.685 18.976 9.328 19.114 8.957 19.114 L 8.957 19.964 L 8.957 20.814 C 9.751 20.814 10.516 20.518 11.103 19.984 L 10.531 19.355 Z M 8.957 19.964 L 8.957 19.114 C 8.586 19.114 8.229 18.976 7.954 18.726 L 7.382 19.355 L 6.811 19.984 C 7.398 20.518 8.163 20.814 8.957 20.814 L 8.957 19.964 Z M 7.382 19.355 L 7.954 18.726 C 7.68 18.477 7.509 18.134 7.474 17.765 L 6.627 17.846 L 5.781 17.926 C 5.856 18.716 6.223 19.45 6.811 19.984 L 7.382 19.355 Z M 6.627 17.846 L 7.474 17.771 C 7.429 17.26 7.262 16.768 6.986 16.336 L 6.269 16.793 L 5.553 17.25 C 5.681 17.452 5.76 17.682 5.781 17.92 L 6.627 17.846 Z M 6.269 16.793 L 6.986 16.336 C 6.71 15.904 6.334 15.544 5.89 15.288 L 5.466 16.024 L 5.041 16.761 C 5.248 16.88 5.424 17.048 5.553 17.25 L 6.269 16.793 Z M 5.466 16.024 L 5.89 15.288 C 5.446 15.032 4.947 14.887 4.435 14.864 L 4.398 15.713 L 4.361 16.563 C 4.6 16.573 4.833 16.641 5.041 16.761 L 5.466 16.024 Z M 4.398 15.713 L 4.435 14.864 C 3.923 14.842 3.413 14.944 2.948 15.16 L 3.307 15.931 L 3.667 16.701 C 3.884 16.6 4.122 16.552 4.361 16.563 L 4.398 15.713 Z M 3.307 15.931 L 2.956 15.157 C 2.619 15.31 2.237 15.332 1.885 15.219 L 1.625 16.028 L 1.366 16.837 C 2.12 17.079 2.937 17.032 3.659 16.705 L 3.307 15.931 Z M 1.625 16.028 L 1.885 15.219 C 1.533 15.106 1.235 14.866 1.05 14.545 L 0.314 14.97 L -0.422 15.396 C -0.026 16.082 0.611 16.596 1.366 16.837 L 1.625 16.028 Z M 0.314 14.97 L 1.05 14.545 C 0.865 14.225 0.805 13.847 0.884 13.485 L 0.053 13.306 L -0.778 13.127 C -0.945 13.901 -0.818 14.71 -0.422 15.396 L 0.314 14.97 Z M 0.053 13.306 L 0.884 13.485 C 0.962 13.124 1.172 12.804 1.472 12.589 L 0.977 11.898 L 0.482 11.207 C -0.162 11.668 -0.611 12.352 -0.778 13.127 L 0.053 13.306 Z M 0.977 11.898 L 1.466 12.593 C 1.885 12.299 2.227 11.908 2.464 11.454 L 1.709 11.062 L 0.955 10.669 C 0.845 10.882 0.685 11.064 0.489 11.202 L 0.977 11.898 Z M 1.709 11.062 L 2.464 11.454 C 2.7 10.999 2.823 10.494 2.823 9.982 L 1.973 9.982 L 1.123 9.982 C 1.123 10.221 1.066 10.457 0.955 10.669 L 1.709 11.062 Z M 1.973 9.982 L 2.823 9.982 C 2.823 9.47 2.7 8.965 2.464 8.51 L 1.709 8.903 L 0.955 9.295 C 1.066 9.507 1.123 9.743 1.123 9.982 L 1.973 9.982 Z M 1.709 8.903 L 2.464 8.51 C 2.227 8.056 1.885 7.665 1.466 7.371 L 0.977 8.067 L 0.489 8.762 C 0.685 8.9 0.845 9.082 0.955 9.295 L 1.709 8.903 Z M 0.977 8.067 L 1.473 7.376 C 1.173 7.16 0.963 6.841 0.885 6.479 L 0.054 6.659 L -0.777 6.838 C -0.61 7.611 -0.161 8.296 0.482 8.757 L 0.977 8.067 Z M 0.054 6.659 L 0.885 6.479 C 0.807 6.118 0.867 5.741 1.051 5.42 L 0.315 4.995 L -0.421 4.57 C -0.817 5.256 -0.943 6.064 -0.777 6.838 L 0.054 6.659 Z M 0.315 4.995 L 1.051 5.42 C 1.236 5.1 1.534 4.86 1.886 4.747 L 1.625 3.938 L 1.365 3.129 C 0.612 3.371 -0.025 3.885 -0.421 4.57 L 0.315 4.995 Z M 1.625 3.938 L 1.886 4.747 C 2.238 4.634 2.619 4.656 2.956 4.808 L 3.306 4.034 L 3.657 3.259 C 2.936 2.933 2.119 2.886 1.365 3.129 L 1.625 3.938 Z M 3.306 4.034 L 2.947 4.804 C 3.412 5.02 3.922 5.122 4.434 5.099 L 4.397 4.25 L 4.36 3.401 C 4.12 3.411 3.882 3.364 3.665 3.263 L 3.306 4.034 Z M 4.397 4.25 L 4.434 5.099 C 4.946 5.077 5.445 4.932 5.889 4.675 L 5.464 3.939 L 5.039 3.203 C 4.832 3.323 4.599 3.391 4.36 3.401 L 4.397 4.25 Z M 5.464 3.939 L 5.889 4.675 C 6.333 4.419 6.708 4.06 6.984 3.628 L 6.267 3.171 L 5.551 2.714 C 5.422 2.916 5.246 3.083 5.039 3.203 L 5.464 3.939 Z M 6.267 3.171 L 6.984 3.628 C 7.259 3.196 7.427 2.704 7.472 2.193 L 6.625 2.119 L 5.779 2.044 C 5.758 2.282 5.679 2.512 5.551 2.714 L 6.267 3.171 Z" fill="currentColor" fill-rule="nonzero"></path>
</svg>